<?xml version="1.0" standalone="no"?>
<!DOCTYPE svg PUBLIC "-//W3C//DTD SVG 20010904//EN"
 "http://www.w3.org/TR/2001/REC-SVG-20010904/DTD/svg10.dtd">
<svg version="1.0" xmlns="http://www.w3.org/2000/svg"
 width="200.000000pt" height="200.000000pt" viewBox="0 0 200.000000 200.000000"
 preserveAspectRatio="xMidYMid meet">

<g transform="translate(0.000000,200.000000) scale(0.100000,-0.100000)"
fill="#000000" stroke="none">
<path d="M961 1844 c-72 -25 -127 -73 -171 -149 -35 -62 -60 -169 -42 -187 9
-9 12 -8 12 5 0 9 5 17 11 17 5 0 8 4 4 9 -3 5 -1 13 5 16 6 4 8 14 5 24 -3 9
1 37 9 61 8 25 14 39 15 32 1 -7 6 -10 12 -6 6 3 15 1 19 -7 7 -10 16 -5 41
19 l33 32 112 0 c79 0 123 -5 149 -16 30 -12 35 -18 24 -26 -11 -7 -11 -11 -1
-15 6 -2 12 -22 12 -43 0 -20 7 -54 15 -75 16 -36 16 -37 -7 -29 -21 6 -43 8
-95 5 -13 -1 -30 -15 -43 -36 -18 -29 -20 -42 -14 -78 5 -23 8 -46 9 -52 0 -5
6 -14 13 -18 18 -12 15 -29 -5 -26 -10 2 -33 -5 -50 -14 -29 -15 -33 -16 -33
-2 0 21 -27 19 -52 -5 -24 -22 -72 -30 -50 -8 24 24 12 31 -13 8 -19 -18 -25
-34 -25 -67 0 -45 12 -56 29 -26 9 17 11 16 34 -5 19 -18 28 -21 48 -13 23 9
23 10 2 10 -12 1 -25 6 -28 11 -7 12 129 9 141 -2 3 -4 -14 -11 -38 -16 -41
-9 -41 -10 -10 -11 19 -1 31 -5 27 -11 -4 -6 4 -6 22 1 15 5 31 16 35 22 9 15
25 0 30 -29 4 -25 -31 -92 -52 -99 -42 -13 -111 -22 -116 -14 -3 5 -14 9 -24
9 -24 0 -51 29 -80 85 -13 25 -27 45 -32 45 -5 0 -13 11 -20 25 -6 13 -14 23
-18 20 -18 -11 -41 60 -47 149 -3 53 -10 96 -15 96 -4 0 -8 8 -9 18 -1 11 -4
8 -8 -8 -4 -14 -4 -28 1 -31 13 -8 18 -48 7 -54 -5 -4 -9 -13 -9 -21 0 -8 5
-12 10 -9 6 4 10 -12 10 -41 0 -26 5 -64 11 -83 24 -75 51 -147 65 -173 8 -14
14 -33 14 -41 0 -43 109 -124 184 -138 33 -6 50 -2 89 17 26 14 52 35 57 47 5
12 9 18 10 12 0 -5 4 -4 9 4 7 11 10 9 16 -9 5 -15 1 -28 -14 -44 -12 -12 -18
-25 -15 -29 3 -3 -4 -21 -16 -39 l-22 -33 26 30 c44 51 56 88 56 170 0 74 11
115 55 198 8 16 15 45 16 65 0 31 2 34 10 17 7 -14 8 -5 5 32 -3 32 -1 55 6
59 6 4 8 3 5 -3 -3 -5 -2 -23 3 -39 8 -24 9 -22 4 16 -6 51 -6 62 -2 185 3 95
-5 121 -58 191 -13 17 -24 35 -24 41 0 12 -48 57 -75 70 -21 11 -84 25 -121
27 -11 1 -48 -8 -83 -20z m316 -261 c-3 -10 -5 -4 -5 12 0 17 2 24 5 18 2 -7
2 -21 0 -30z m-11 -110 c-11 -11 -19 6 -11 24 8 17 8 17 12 0 3 -10 2 -21 -1
-24z m-50 -7 c12 -10 16 -18 9 -24 -12 -11 -75 13 -75 28 0 15 43 12 66 -4z
m63 -18 c-9 -16 -14 -19 -17 -9 -2 7 2 17 9 22 20 13 21 11 8 -13z m-179 -22
c0 -3 -4 -8 -10 -11 -5 -3 -10 -1 -10 4 0 6 5 11 10 11 6 0 10 -2 10 -4z m34
-11 c3 -8 1 -15 -4 -15 -6 0 -10 7 -10 15 0 8 2 15 4 15 2 0 6 -7 10 -15z
m151 -59 c2 -25 0 -48 -6 -51 -5 -4 -9 10 -9 29 0 22 -5 36 -12 37 -10 0 -10
2 0 6 6 2 12 12 12 21 0 33 11 2 15 -42z m-159 29 c33 -17 109 -21 99 -5 -3 6
-4 10 -1 10 9 0 33 -53 39 -87 8 -39 -2 -95 -14 -87 -5 3 -9 0 -9 -5 0 -6 -5
-11 -10 -11 -6 0 -22 -12 -35 -27 l-24 -28 -1 30 c0 46 -19 102 -35 109 -20 7
-19 -4 2 -20 24 -17 10 -28 -17 -14 -18 10 -21 18 -16 42 3 17 2 36 -3 42 -11
15 -20 66 -11 66 4 0 21 -7 36 -15z m-81 -165 c4 -6 -11 -10 -39 -10 -58 0
-67 14 -11 18 24 1 47 -2 50 -8z"/>
<path d="M845 1528 c-46 -25 -61 -67 -15 -43 34 18 66 19 76 4 8 -14 -14 -29
-42 -29 -11 0 -29 -7 -40 -15 -19 -15 -18 -15 6 -36 20 -17 32 -20 64 -14 22
3 48 12 57 20 8 8 21 15 27 15 16 0 15 23 0 38 -7 7 -13 20 -13 29 0 10 -16
20 -50 29 -27 7 -50 13 -50 13 0 0 -9 -5 -20 -11z"/>
<path d="M960 1118 c0 -12 44 -38 65 -38 21 0 65 26 65 38 0 4 -29 7 -65 7
-36 0 -65 -3 -65 -7z"/>
<path d="M810 981 c0 -6 4 -13 10 -16 6 -3 7 1 4 9 -7 18 -14 21 -14 7z"/>
<path d="M743 928 c-40 -40 -56 -48 -205 -95 -90 -29 -189 -57 -221 -63 -65
-13 -77 -29 -77 -100 0 -22 -7 -54 -14 -72 -18 -40 -76 -195 -76 -203 0 -11
154 -126 218 -164 88 -51 198 -97 291 -122 78 -20 267 -46 275 -38 3 3 -8 52
-25 109 -58 200 -84 339 -100 529 -6 69 -14 157 -18 194 l-6 68 -42 -43z"/>
<path d="M1226 813 c-25 -201 -62 -449 -90 -598 -14 -71 -24 -130 -23 -131 1
-2 32 4 69 11 223 47 439 168 611 342 l68 69 -31 86 c-16 48 -30 97 -30 110
-1 64 -43 89 -220 127 -135 29 -260 70 -295 97 -18 13 -34 24 -37 24 -3 0 -13
-62 -22 -137z"/>
<path d="M820 929 c0 -15 65 -109 76 -109 7 0 -5 20 -26 45 -10 11 -25 34 -33
50 -10 17 -16 23 -17 14z"/>
</g>
</svg>
